<?xml version="1.0" standalone="no"?>
<!DOCTYPE svg PUBLIC "-//W3C//DTD SVG 20010904//EN"
 "http://www.w3.org/TR/2001/REC-SVG-20010904/DTD/svg10.dtd">
<svg version="1.0" xmlns="http://www.w3.org/2000/svg"
 width="277.000000pt" height="167.000000pt" viewBox="0 0 277.000000 167.000000"
 preserveAspectRatio="xMidYMid meet">

<g transform="translate(0.000000,167.000000) scale(0.100000,-0.100000)"
fill="#000000" stroke="none">
<path d="M1300 1425 l0 -115 -232 -2 -233 -3 -3 -112 -3 -113 -114 0 -115 0 0
-120 0 -120 -100 0 -100 0 0 -90 c0 -88 -1 -90 -24 -90 -13 0 -48 13 -79 28
-53 27 -57 28 -63 10 -6 -19 -69 -56 -101 -60 -10 -1 47 -5 126 -8 l144 -5 13
-55 c45 -177 175 -332 353 -420 116 -58 207 -75 396 -74 350 1 614 91 842 286
65 55 162 167 202 231 l23 37 196 1 c184 0 194 1 158 15 -45 16 -76 41 -76 61
0 16 -16 17 -26 2 -20 -32 -212 -77 -226 -53 -3 5 10 42 29 82 l35 72 48 0
c63 0 162 31 206 65 38 29 94 100 94 120 0 6 -23 22 -52 36 -44 20 -66 24
-149 24 l-97 -1 -12 41 c-15 54 -74 139 -123 177 l-40 32 -23 -30 c-59 -73
-72 -241 -26 -331 l22 -42 -27 -15 c-61 -31 -138 -46 -235 -46 l-98 0 0 120 0
120 -115 0 -115 0 0 230 0 230 -140 0 -140 0 0 -115z m240 -25 l0 -100 -100 0
-100 0 0 100 0 100 100 0 100 0 0 -100z m-470 -230 l0 -100 -95 0 -95 0 0 100
0 100 95 0 95 0 0 -100z m240 0 l0 -100 -100 0 -100 0 0 100 0 100 100 0 100
0 0 -100z m228 3 l-3 -98 -95 0 -95 0 -3 98 -3 97 101 0 101 0 -3 -97z m753
-22 c16 -24 34 -71 40 -103 10 -48 15 -58 28 -52 69 28 185 28 239 0 l27 -14
-50 -49 c-57 -55 -102 -72 -213 -82 l-73 -6 -34 -79 c-19 -44 -39 -84 -45 -90
-7 -7 -25 -3 -59 11 l-50 21 -50 -25 c-94 -47 -318 -40 -418 13 -44 24 -44 24
-71 5 -83 -60 -250 -66 -353 -13 l-58 30 -45 -23 c-103 -52 -322 -59 -415 -14
-47 24 -48 24 -89 7 -22 -10 -68 -21 -101 -25 l-61 -6 0 71 0 71 803 3 c789 3
803 3 857 24 30 12 72 31 92 44 l38 22 -24 31 c-53 72 -65 195 -27 282 l21 48
32 -29 c17 -16 44 -49 59 -73z m-1451 -211 l0 -100 -100 0 -100 0 0 93 c0 52
3 97 7 100 3 4 48 7 100 7 l93 0 0 -100z m230 0 l0 -100 -100 0 -100 0 0 100
0 100 100 0 100 0 0 -100z m230 0 l0 -100 -95 0 -95 0 0 100 0 100 95 0 95 0
0 -100z m240 0 l0 -100 -100 0 -100 0 0 100 0 100 100 0 100 0 0 -100z m230 0
l0 -100 -95 0 -95 0 0 100 0 100 95 0 95 0 0 -100z m-655 -441 c17 -17 10 -80
-10 -95 -25 -19 -64 -18 -87 3 -32 28 -19 91 22 106 18 7 62 -1 75 -14z m-111
-204 c39 -66 72 -98 159 -153 42 -26 45 -30 26 -35 -41 -11 -237 13 -316 38
-89 28 -181 80 -250 140 l-47 42 134 7 c74 3 153 10 175 15 75 16 77 15 119
-54z"/>
<path d="M1364 1405 c0 -49 1 -71 3 -48 2 23 2 64 0 90 -2 26 -3 8 -3 -42z"/>
<path d="M1387 1483 c-11 -10 -8 -151 3 -158 6 -4 10 25 10 79 0 86 -1 92 -13
79z"/>
<path d="M1424 1405 c0 -49 1 -71 3 -48 2 23 2 64 0 90 -2 26 -3 8 -3 -42z"/>
<path d="M1454 1405 c0 -49 1 -71 3 -48 2 23 2 64 0 90 -2 26 -3 8 -3 -42z"/>
<path d="M1484 1405 c0 -49 1 -71 3 -48 2 23 2 64 0 90 -2 26 -3 8 -3 -42z"/>
<path d="M1514 1405 c0 -49 1 -71 3 -48 2 23 2 64 0 90 -2 26 -3 8 -3 -42z"/>
<path d="M890 1169 c0 -57 4 -88 10 -84 6 3 10 44 10 91 0 49 -4 84 -10 84 -6
0 -10 -37 -10 -91z"/>
<path d="M920 1170 c0 -53 4 -90 10 -90 6 0 10 37 10 90 0 53 -4 90 -10 90 -6
0 -10 -37 -10 -90z"/>
<path d="M950 1170 c0 -53 4 -90 10 -90 6 0 10 37 10 90 0 53 -4 90 -10 90 -6
0 -10 -37 -10 -90z"/>
<path d="M980 1170 c0 -53 4 -90 10 -90 6 0 10 37 10 90 0 53 -4 90 -10 90 -6
0 -10 -37 -10 -90z"/>
<path d="M1010 1170 c0 -53 4 -90 10 -90 6 0 10 37 10 90 0 53 -4 90 -10 90
-6 0 -10 -37 -10 -90z"/>
<path d="M1040 1170 c0 -53 4 -90 10 -90 6 0 10 37 10 90 0 53 -4 90 -10 90
-6 0 -10 -37 -10 -90z"/>
<path d="M1217 1253 c-11 -11 -8 -163 3 -163 6 0 10 35 10 85 0 85 -1 91 -13
78z"/>
<path d="M1247 1253 c-11 -11 -8 -163 3 -163 6 0 10 35 10 85 0 85 -1 91 -13
78z"/>
<path d="M1277 1253 c-11 -11 -8 -163 3 -163 6 0 10 35 10 85 0 85 -1 91 -13
78z"/>
<path d="M1120 1170 c0 -47 4 -80 10 -80 6 0 10 33 10 80 0 47 -4 80 -10 80
-6 0 -10 -33 -10 -80z"/>
<path d="M1150 1170 c0 -47 4 -80 10 -80 6 0 10 33 10 80 0 47 -4 80 -10 80
-6 0 -10 -33 -10 -80z"/>
<path d="M1180 1170 c0 -47 4 -80 10 -80 6 0 10 33 10 80 0 47 -4 80 -10 80
-6 0 -10 -33 -10 -80z"/>
<path d="M1353 1244 c-2 -6 -3 -44 -1 -85 l3 -73 85 0 85 0 0 84 0 83 -84 2
c-54 0 -85 -3 -88 -11z"/>
<path d="M653 1014 c-2 -6 -3 -44 -1 -84 l3 -73 58 -2 58 -2 -3 85 -3 86 -54
0 c-30 1 -55 -4 -58 -10z"/>
<path d="M780 941 c0 -54 4 -91 10 -91 6 0 10 35 10 84 0 47 -4 88 -10 91 -6
4 -10 -27 -10 -84z"/>
<path d="M810 941 c0 -54 4 -91 10 -91 6 0 10 35 10 84 0 47 -4 88 -10 91 -6
4 -10 -27 -10 -84z"/>
<path d="M890 940 c0 -52 4 -79 10 -75 6 3 10 37 10 75 0 38 -4 72 -10 75 -6
4 -10 -23 -10 -75z"/>
<path d="M920 940 c0 -47 4 -80 10 -80 6 0 10 33 10 80 0 47 -4 80 -10 80 -6
0 -10 -33 -10 -80z"/>
<path d="M950 940 c0 -47 4 -80 10 -80 6 0 10 33 10 80 0 47 -4 80 -10 80 -6
0 -10 -33 -10 -80z"/>
<path d="M980 940 c0 -47 4 -80 10 -80 6 0 10 33 10 80 0 47 -4 80 -10 80 -6
0 -10 -33 -10 -80z"/>
<path d="M1010 940 c0 -47 4 -80 10 -80 6 0 10 33 10 80 0 47 -4 80 -10 80 -6
0 -10 -33 -10 -80z"/>
<path d="M1040 940 c0 -47 4 -80 10 -80 6 0 10 33 10 80 0 47 -4 80 -10 80 -6
0 -10 -33 -10 -80z"/>
<path d="M1120 940 c0 -53 4 -90 10 -90 6 0 10 37 10 90 0 53 -4 90 -10 90 -6
0 -10 -37 -10 -90z"/>
<path d="M1150 940 c0 -53 4 -90 10 -90 6 0 10 37 10 90 0 53 -4 90 -10 90 -6
0 -10 -37 -10 -90z"/>
<path d="M1180 940 c0 -53 4 -90 10 -90 6 0 10 37 10 90 0 53 -4 90 -10 90 -6
0 -10 -37 -10 -90z"/>
<path d="M1217 1023 c-11 -11 -8 -173 3 -173 6 0 10 37 10 90 0 90 -1 96 -13
83z"/>
<path d="M1247 1023 c-11 -11 -8 -173 3 -173 6 0 10 37 10 90 0 90 -1 96 -13
83z"/>
<path d="M1277 1023 c-11 -11 -8 -173 3 -173 6 0 10 37 10 90 0 90 -1 96 -13
83z"/>
<path d="M1364 935 c0 -49 1 -71 3 -48 2 23 2 64 0 90 -2 26 -3 8 -3 -42z"/>
<path d="M1387 1013 c-11 -10 -8 -151 3 -158 6 -4 10 25 10 79 0 86 -1 92 -13
79z"/>
<path d="M1424 935 c0 -49 1 -71 3 -48 2 23 2 64 0 90 -2 26 -3 8 -3 -42z"/>
<path d="M1454 935 c0 -49 1 -71 3 -48 2 23 2 64 0 90 -2 26 -3 8 -3 -42z"/>
<path d="M1484 935 c0 -49 1 -71 3 -48 2 23 2 64 0 90 -2 26 -3 8 -3 -42z"/>
<path d="M1514 935 c0 -49 1 -71 3 -48 2 23 2 64 0 90 -2 26 -3 8 -3 -42z"/>
<path d="M1590 941 c0 -54 4 -91 10 -91 6 0 10 35 10 84 0 47 -4 88 -10 91 -6
4 -10 -27 -10 -84z"/>
<path d="M1620 941 c0 -54 4 -91 10 -91 6 0 10 35 10 84 0 47 -4 88 -10 91 -6
4 -10 -27 -10 -84z"/>
<path d="M1650 941 c0 -54 4 -91 10 -91 6 0 10 35 10 84 0 47 -4 88 -10 91 -6
4 -10 -27 -10 -84z"/>
<path d="M1680 941 c0 -54 4 -91 10 -91 6 0 10 35 10 84 0 47 -4 88 -10 91 -6
4 -10 -27 -10 -84z"/>
<path d="M1710 940 c0 -53 4 -90 10 -90 6 0 10 37 10 90 0 53 -4 90 -10 90 -6
0 -10 -37 -10 -90z"/>
<path d="M1740 940 c0 -53 4 -90 10 -90 6 0 10 37 10 90 0 53 -4 90 -10 90 -6
0 -10 -37 -10 -90z"/>
<path d="M1029 474 c-19 -23 1 -49 37 -49 19 0 30 6 32 18 2 10 -3 17 -12 17
-9 0 -16 7 -16 15 0 20 -24 19 -41 -1z"/>
</g>
</svg>
